<svg xmlns="http://www.w3.org/2000/svg" xmlns:xlink="http://www.w3.org/1999/xlink" width="429" zoomAndPan="magnify" viewBox="0 0 321.75 113.999999" height="152" preserveAspectRatio="xMidYMid meet" version="1.2"><defs><clipPath id="7318a36e8a"><path d="M 0 11.347656 L 109 11.347656 L 109 111.769531 L 0 111.769531 Z M 0 11.347656 "/></clipPath></defs><g id="b546197241"><g clip-rule="nonzero" clip-path="url(#7318a36e8a)"><path style=" stroke:none;fill-rule:evenodd;fill:#04b1cc;fill-opacity:1;" d="M 18.4375 65.863281 C 7.726562 61.886719 0.09375 51.574219 0.09375 39.480469 C 0.09375 23.945312 12.691406 11.347656 28.226562 11.347656 C 37.582031 11.347656 45.871094 15.914062 50.988281 22.941406 C 32.332031 28.375 18.660156 45.507812 18.4375 65.863281 Z M 18.4375 65.863281 C 18.4375 66.03125 18.433594 66.199219 18.433594 66.367188 C 18.433594 91.34375 38.683594 111.59375 63.660156 111.59375 C 88.636719 111.59375 108.886719 91.34375 108.886719 66.367188 C 108.886719 41.390625 88.636719 21.140625 63.660156 21.140625 C 59.261719 21.140625 55.007812 21.769531 50.988281 22.941406 C 54.367188 27.582031 56.359375 33.300781 56.359375 39.480469 C 56.359375 55.019531 43.765625 67.613281 28.226562 67.613281 C 24.785156 67.613281 21.488281 66.996094 18.4375 65.863281 Z M 18.4375 65.863281 "/></g><g style="fill:#04b1cc;fill-opacity:1;"><g transform="translate(114.651536, 60.467722)"><path style="stroke:none" d="M 28.109375 -29.84375 L 26.640625 -27.421875 C 26.378906 -26.929688 26.097656 -26.6875 25.796875 -26.6875 C 25.660156 -26.6875 25.460938 -26.769531 25.203125 -26.9375 C 23.628906 -27.988281 22.140625 -28.734375 20.734375 -29.171875 C 19.335938 -29.617188 17.835938 -29.84375 16.234375 -29.84375 C 14.191406 -29.84375 12.628906 -29.5625 11.546875 -29 C 10.460938 -28.445312 9.726562 -27.757812 9.34375 -26.9375 C 8.96875 -26.113281 8.78125 -25.289062 8.78125 -24.46875 C 8.78125 -23.382812 9.140625 -22.535156 9.859375 -21.921875 C 10.585938 -21.316406 11.59375 -20.863281 12.875 -20.5625 C 14.15625 -20.269531 15.632812 -20.007812 17.3125 -19.78125 C 18.820312 -19.582031 20.273438 -19.289062 21.671875 -18.90625 C 23.078125 -18.53125 24.335938 -17.976562 25.453125 -17.25 C 26.566406 -16.53125 27.453125 -15.578125 28.109375 -14.390625 C 28.773438 -13.210938 29.109375 -11.703125 29.109375 -9.859375 C 29.109375 -8.054688 28.628906 -6.363281 27.671875 -4.78125 C 26.722656 -3.207031 25.300781 -1.925781 23.40625 -0.9375 C 21.507812 0.0507812 19.148438 0.546875 16.328125 0.546875 C 11.035156 0.546875 6.578125 -0.703125 2.953125 -3.203125 C 2.597656 -3.429688 2.421875 -3.648438 2.421875 -3.859375 C 2.421875 -4.078125 2.5 -4.351562 2.65625 -4.6875 L 4.1875 -7.15625 C 4.457031 -7.613281 4.722656 -7.84375 4.984375 -7.84375 C 5.210938 -7.84375 5.425781 -7.757812 5.625 -7.59375 C 7.195312 -6.570312 8.867188 -5.832031 10.640625 -5.375 C 12.421875 -4.914062 14.148438 -4.6875 15.828125 -4.6875 C 17.972656 -4.6875 19.757812 -5.054688 21.1875 -5.796875 C 22.613281 -6.535156 23.328125 -7.8125 23.328125 -9.625 C 23.328125 -11.394531 22.546875 -12.617188 20.984375 -13.296875 C 19.421875 -13.972656 17.257812 -14.488281 14.5 -14.84375 C 13.15625 -15.007812 11.804688 -15.28125 10.453125 -15.65625 C 9.109375 -16.039062 7.867188 -16.578125 6.734375 -17.265625 C 5.597656 -17.953125 4.691406 -18.863281 4.015625 -20 C 3.347656 -21.132812 3.015625 -22.554688 3.015625 -24.265625 C 3.015625 -25.316406 3.226562 -26.46875 3.65625 -27.71875 C 4.082031 -28.96875 4.785156 -30.148438 5.765625 -31.265625 C 6.753906 -32.390625 8.0625 -33.304688 9.6875 -34.015625 C 11.320312 -34.722656 13.335938 -35.078125 15.734375 -35.078125 C 18.265625 -35.078125 20.441406 -34.738281 22.265625 -34.0625 C 24.097656 -33.382812 25.96875 -32.472656 27.875 -31.328125 C 28.226562 -31.128906 28.394531 -30.921875 28.375 -30.703125 C 28.363281 -30.492188 28.273438 -30.207031 28.109375 -29.84375 Z M 28.109375 -29.84375 "/></g></g><g style="fill:#04b1cc;fill-opacity:1;"><g transform="translate(146.224483, 60.467722)"><path style="stroke:none" d="M 4.390625 -1.03125 L 4.390625 -33.5 C 4.390625 -33.882812 4.460938 -34.148438 4.609375 -34.296875 C 4.753906 -34.453125 5.023438 -34.53125 5.421875 -34.53125 L 9.328125 -34.53125 C 9.753906 -34.53125 10.03125 -34.453125 10.15625 -34.296875 C 10.289062 -34.148438 10.359375 -33.882812 10.359375 -33.5 L 10.359375 -1.03125 C 10.359375 -0.632812 10.285156 -0.363281 10.140625 -0.21875 C 9.992188 -0.0703125 9.722656 0 9.328125 0 L 5.421875 0 C 5.023438 0 4.753906 -0.0703125 4.609375 -0.21875 C 4.460938 -0.363281 4.390625 -0.632812 4.390625 -1.03125 Z M 4.390625 -1.03125 "/></g></g><g style="fill:#04b1cc;fill-opacity:1;"><g transform="translate(160.974973, 60.467722)"><path style="stroke:none" d="M 17.703125 0 L 5.328125 0 C 4.929688 0 4.660156 -0.0703125 4.515625 -0.21875 C 4.367188 -0.363281 4.296875 -0.632812 4.296875 -1.03125 L 4.296875 -33.5 C 4.296875 -33.882812 4.367188 -34.148438 4.515625 -34.296875 C 4.660156 -34.453125 4.929688 -34.53125 5.328125 -34.53125 L 17.703125 -34.53125 C 20.140625 -34.53125 22.410156 -34.09375 24.515625 -33.21875 C 26.617188 -32.351562 28.46875 -31.140625 30.0625 -29.578125 C 31.65625 -28.015625 32.894531 -26.1875 33.78125 -24.09375 C 34.675781 -22.007812 35.125 -19.734375 35.125 -17.265625 C 35.125 -14.796875 34.675781 -12.515625 33.78125 -10.421875 C 32.894531 -8.335938 31.65625 -6.515625 30.0625 -4.953125 C 28.46875 -3.390625 26.617188 -2.171875 24.515625 -1.296875 C 22.410156 -0.429688 20.140625 0 17.703125 0 Z M 17.65625 -29.546875 L 10.265625 -29.546875 L 10.265625 -4.984375 L 17.65625 -4.984375 C 20.0625 -4.984375 22.109375 -5.554688 23.796875 -6.703125 C 25.492188 -7.859375 26.800781 -9.375 27.71875 -11.25 C 28.644531 -13.125 29.109375 -15.128906 29.109375 -17.265625 C 29.109375 -19.429688 28.644531 -21.441406 27.71875 -23.296875 C 26.800781 -25.160156 25.492188 -26.664062 23.796875 -27.8125 C 22.109375 -28.96875 20.0625 -29.546875 17.65625 -29.546875 Z M 17.65625 -29.546875 "/></g></g><g style="fill:#04b1cc;fill-opacity:1;"><g transform="translate(198.073183, 60.467722)"><path style="stroke:none" d="M 4.34375 -1.03125 L 4.34375 -34.734375 C 4.34375 -35.023438 4.488281 -35.171875 4.78125 -35.171875 L 5.171875 -35.171875 C 5.441406 -35.171875 5.707031 -35.039062 5.96875 -34.78125 L 27.921875 -11.59375 L 27.921875 -33.5 C 27.921875 -33.882812 27.992188 -34.148438 28.140625 -34.296875 C 28.285156 -34.453125 28.554688 -34.53125 28.953125 -34.53125 L 32.859375 -34.53125 C 33.242188 -34.53125 33.507812 -34.453125 33.65625 -34.296875 C 33.8125 -34.148438 33.890625 -33.882812 33.890625 -33.5 L 33.890625 0.203125 C 33.890625 0.492188 33.738281 0.640625 33.4375 0.640625 L 33.09375 0.640625 C 32.863281 0.640625 32.585938 0.507812 32.265625 0.25 L 10.3125 -23.140625 L 10.3125 -1.03125 C 10.3125 -0.632812 10.234375 -0.363281 10.078125 -0.21875 C 9.929688 -0.0703125 9.664062 0 9.28125 0 L 5.421875 0 C 4.703125 0 4.34375 -0.34375 4.34375 -1.03125 Z M 4.34375 -1.03125 "/></g></g><g style="fill:#04b1cc;fill-opacity:1;"><g transform="translate(236.355383, 60.467722)"><path style="stroke:none" d="M 28.515625 -4.046875 L 28.515625 -1.03125 C 28.515625 -0.632812 28.4375 -0.363281 28.28125 -0.21875 C 28.132812 -0.0703125 27.847656 0 27.421875 0 L 5.28125 0 C 4.851562 0 4.5625 -0.0703125 4.40625 -0.21875 C 4.257812 -0.363281 4.1875 -0.632812 4.1875 -1.03125 L 4.1875 -33.5 C 4.1875 -34.1875 4.550781 -34.53125 5.28125 -34.53125 L 27.421875 -34.53125 C 28.148438 -34.53125 28.515625 -34.1875 28.515625 -33.5 L 28.515625 -30.484375 C 28.515625 -29.765625 28.148438 -29.40625 27.421875 -29.40625 L 10.15625 -29.40625 L 10.15625 -19.921875 L 26.6875 -19.921875 C 27.113281 -19.921875 27.390625 -19.851562 27.515625 -19.71875 C 27.648438 -19.59375 27.71875 -19.316406 27.71875 -18.890625 L 27.71875 -15.890625 C 27.71875 -15.492188 27.648438 -15.21875 27.515625 -15.0625 C 27.390625 -14.914062 27.113281 -14.84375 26.6875 -14.84375 L 10.15625 -14.84375 L 10.15625 -5.078125 L 27.421875 -5.078125 C 27.847656 -5.078125 28.132812 -5.007812 28.28125 -4.875 C 28.4375 -4.75 28.515625 -4.472656 28.515625 -4.046875 Z M 28.515625 -4.046875 "/></g></g><g style="fill:#04b1cc;fill-opacity:1;"><g transform="translate(267.780336, 60.467722)"><path style="stroke:none" d="M 26.640625 -34.53125 L 31.03125 -34.53125 C 31.382812 -34.53125 31.609375 -34.453125 31.703125 -34.296875 C 31.804688 -34.148438 31.742188 -33.882812 31.515625 -33.5 L 18.890625 -13.015625 L 18.890625 -1.03125 C 18.890625 -0.632812 18.820312 -0.363281 18.6875 -0.21875 C 18.5625 -0.0703125 18.285156 0 17.859375 0 L 14.15625 0 C 13.757812 0 13.488281 -0.0703125 13.34375 -0.21875 C 13.195312 -0.363281 13.125 -0.632812 13.125 -1.03125 L 13.125 -13.015625 L 0.5 -33.5 C 0.257812 -33.882812 0.1875 -34.148438 0.28125 -34.296875 C 0.382812 -34.453125 0.617188 -34.53125 0.984375 -34.53125 L 5.46875 -34.53125 C 5.832031 -34.53125 6.097656 -34.453125 6.265625 -34.296875 C 6.429688 -34.148438 6.628906 -33.882812 6.859375 -33.5 L 16.03125 -18.25 L 25.25 -33.5 C 25.519531 -33.882812 25.734375 -34.148438 25.890625 -34.296875 C 26.054688 -34.453125 26.304688 -34.53125 26.640625 -34.53125 Z M 26.640625 -34.53125 "/></g></g><g style="fill:#ffffff;fill-opacity:1;"><g transform="translate(152.904624, 94.024935)"><path style="stroke:none" d="M 9.5 -19.0625 C 11.664062 -19.0625 13.203125 -18.613281 14.109375 -17.71875 C 15.015625 -16.820312 15.46875 -15.671875 15.46875 -14.265625 C 15.46875 -13.203125 15.210938 -12.3125 14.703125 -11.59375 C 14.191406 -10.882812 13.375 -10.335938 12.25 -9.953125 C 13.570312 -9.597656 14.535156 -9.023438 15.140625 -8.234375 C 15.753906 -7.441406 16.0625 -6.429688 16.0625 -5.203125 C 16.0625 -3.773438 15.5625 -2.550781 14.5625 -1.53125 C 13.570312 -0.507812 12.0625 0 10.03125 0 L 2.515625 0 L 2.515625 -19.0625 Z M 8.875 -11.015625 C 10.195312 -11.015625 11.171875 -11.269531 11.796875 -11.78125 C 12.421875 -12.300781 12.734375 -13.046875 12.734375 -14.015625 C 12.734375 -14.972656 12.460938 -15.691406 11.921875 -16.171875 C 11.378906 -16.660156 10.46875 -16.90625 9.1875 -16.90625 L 5.0625 -16.90625 L 5.0625 -11.015625 Z M 9.671875 -2.140625 C 10.722656 -2.140625 11.59375 -2.425781 12.28125 -3 C 12.976562 -3.570312 13.328125 -4.382812 13.328125 -5.4375 C 13.328125 -6.4375 12.992188 -7.234375 12.328125 -7.828125 C 11.660156 -8.429688 10.789062 -8.734375 9.71875 -8.734375 L 5.0625 -8.734375 L 5.0625 -2.140625 Z M 9.671875 -2.140625 "/></g></g><g style="fill:#ffffff;fill-opacity:1;"><g transform="translate(170.509113, 94.024935)"><path style="stroke:none" d="M 3.109375 -13.25 L 7.265625 -2.796875 L 11.484375 -13.25 L 14.1875 -13.25 L 8.234375 0.1875 L 6.390625 5.015625 L 3.828125 5.015625 L 5.828125 -0.046875 L 0.3125 -13.25 Z M 3.109375 -13.25 "/></g></g><g style="fill:#ffffff;fill-opacity:1;"><g transform="translate(185.183913, 94.024935)"><path style="stroke:none" d=""/></g></g><g style="fill:#ffffff;fill-opacity:1;"><g transform="translate(192.521313, 94.024935)"><path style="stroke:none" d="M 12.78125 -14.3125 C 12.675781 -16.25 11.347656 -17.21875 8.796875 -17.21875 C 7.453125 -17.21875 6.40625 -16.9375 5.65625 -16.375 C 4.914062 -15.820312 4.546875 -15.070312 4.546875 -14.125 C 4.546875 -13.457031 4.742188 -12.910156 5.140625 -12.484375 C 5.546875 -12.066406 6.445312 -11.679688 7.84375 -11.328125 L 10.984375 -10.5625 C 12.890625 -10.082031 14.207031 -9.4375 14.9375 -8.625 C 15.664062 -7.820312 16.03125 -6.78125 16.03125 -5.5 C 16.03125 -3.675781 15.34375 -2.226562 13.96875 -1.15625 C 12.59375 -0.0820312 10.78125 0.453125 8.53125 0.453125 C 6.113281 0.453125 4.332031 -0.0625 3.1875 -1.09375 C 2.050781 -2.125 1.484375 -3.507812 1.484375 -5.25 L 1.484375 -5.578125 L 4.21875 -5.578125 C 4.21875 -4.234375 4.597656 -3.265625 5.359375 -2.671875 C 6.128906 -2.085938 7.28125 -1.796875 8.8125 -1.796875 C 10.3125 -1.796875 11.429688 -2.125 12.171875 -2.78125 C 12.910156 -3.445312 13.28125 -4.253906 13.28125 -5.203125 C 13.28125 -6.242188 12.847656 -6.984375 11.984375 -7.421875 C 11.117188 -7.859375 9.582031 -8.3125 7.375 -8.78125 C 5.164062 -9.257812 3.675781 -9.925781 2.90625 -10.78125 C 2.132812 -11.632812 1.75 -12.660156 1.75 -13.859375 C 1.75 -15.546875 2.425781 -16.894531 3.78125 -17.90625 C 5.144531 -18.925781 6.882812 -19.4375 9 -19.4375 C 11.039062 -19.4375 12.628906 -18.988281 13.765625 -18.09375 C 14.898438 -17.207031 15.488281 -15.945312 15.53125 -14.3125 Z M 12.78125 -14.3125 "/></g></g><g style="fill:#ffffff;fill-opacity:1;"><g transform="translate(209.597758, 94.024935)"><path style="stroke:none" d="M 12.4375 -3.296875 C 12.457031 -2.492188 12.484375 -1.882812 12.515625 -1.46875 C 12.546875 -1.050781 12.59375 -0.5625 12.65625 0 L 10.40625 0 C 10.3125 -0.300781 10.25 -0.597656 10.21875 -0.890625 C 10.1875 -1.191406 10.171875 -1.554688 10.171875 -1.984375 C 9.765625 -1.222656 9.234375 -0.628906 8.578125 -0.203125 C 7.929688 0.210938 7.085938 0.421875 6.046875 0.421875 C 4.617188 0.421875 3.488281 0.0625 2.65625 -0.65625 C 1.820312 -1.382812 1.40625 -2.328125 1.40625 -3.484375 C 1.40625 -4.878906 1.945312 -6.019531 3.03125 -6.90625 C 4.125 -7.789062 5.816406 -8.234375 8.109375 -8.234375 C 9.023438 -8.234375 9.691406 -8.207031 10.109375 -8.15625 L 10.109375 -9.265625 C 10.109375 -10.335938 9.84375 -11.054688 9.3125 -11.421875 C 8.789062 -11.785156 8.097656 -11.96875 7.234375 -11.96875 C 6.460938 -11.96875 5.851562 -11.773438 5.40625 -11.390625 C 4.957031 -11.015625 4.710938 -10.457031 4.671875 -9.71875 L 2.1875 -9.71875 C 2.28125 -11.070312 2.773438 -12.066406 3.671875 -12.703125 C 4.566406 -13.335938 5.804688 -13.65625 7.390625 -13.65625 C 8.847656 -13.65625 10.070312 -13.347656 11.0625 -12.734375 C 12.050781 -12.128906 12.546875 -11.140625 12.546875 -9.765625 Z M 10.0625 -5.0625 L 10.109375 -6.4375 C 9.972656 -6.457031 9.785156 -6.472656 9.546875 -6.484375 C 9.304688 -6.503906 9.019531 -6.515625 8.6875 -6.515625 C 5.5 -6.515625 3.90625 -5.628906 3.90625 -3.859375 C 3.90625 -3.191406 4.140625 -2.632812 4.609375 -2.1875 C 5.078125 -1.75 5.757812 -1.53125 6.65625 -1.53125 C 7.707031 -1.53125 8.53125 -1.847656 9.125 -2.484375 C 9.71875 -3.117188 10.03125 -3.976562 10.0625 -5.0625 Z M 10.0625 -5.0625 "/></g></g><g style="fill:#ffffff;fill-opacity:1;"><g transform="translate(224.272558, 94.024935)"><path style="stroke:none" d="M 5.09375 -13.3125 L 8.046875 -13.3125 L 8.046875 -11.484375 L 5.09375 -11.484375 L 5.09375 -3.375 C 5.09375 -2.78125 5.242188 -2.363281 5.546875 -2.125 C 5.859375 -1.882812 6.296875 -1.765625 6.859375 -1.765625 C 7.304688 -1.765625 7.703125 -1.8125 8.046875 -1.90625 L 8.046875 0.03125 C 7.835938 0.0625 7.550781 0.09375 7.1875 0.125 C 6.832031 0.164062 6.441406 0.1875 6.015625 0.1875 C 4.734375 0.1875 3.847656 -0.0390625 3.359375 -0.5 C 2.878906 -0.957031 2.640625 -1.644531 2.640625 -2.5625 L 2.640625 -11.484375 L 0.296875 -11.484375 L 0.296875 -13.3125 L 2.640625 -13.3125 L 2.640625 -16.078125 L 5.09375 -16.875 Z M 5.09375 -13.3125 "/></g></g><g style="fill:#ffffff;fill-opacity:1;"><g transform="translate(233.0616, 94.024935)"><path style="stroke:none" d="M 7.875 0.453125 C 5.863281 0.453125 4.269531 -0.175781 3.09375 -1.4375 C 1.925781 -2.695312 1.34375 -4.375 1.34375 -6.46875 C 1.34375 -8.6875 1.941406 -10.425781 3.140625 -11.6875 C 4.335938 -12.957031 5.984375 -13.59375 8.078125 -13.59375 C 10.117188 -13.59375 11.710938 -12.976562 12.859375 -11.75 C 14.003906 -10.519531 14.578125 -8.8125 14.578125 -6.625 C 14.578125 -4.457031 13.957031 -2.734375 12.71875 -1.453125 C 11.488281 -0.179688 9.875 0.453125 7.875 0.453125 Z M 11.9375 -6.734375 C 11.9375 -8.316406 11.597656 -9.550781 10.921875 -10.4375 C 10.242188 -11.332031 9.296875 -11.78125 8.078125 -11.78125 C 6.867188 -11.78125 5.875 -11.328125 5.09375 -10.421875 C 4.320312 -9.515625 3.9375 -8.269531 3.9375 -6.6875 C 3.9375 -5.09375 4.28125 -3.8125 4.96875 -2.84375 C 5.664062 -1.882812 6.640625 -1.40625 7.890625 -1.40625 C 9.109375 -1.40625 10.085938 -1.863281 10.828125 -2.78125 C 11.566406 -3.707031 11.9375 -5.023438 11.9375 -6.734375 Z M 11.9375 -6.734375 "/></g></g><g style="fill:#ffffff;fill-opacity:1;"><g transform="translate(249.188042, 94.024935)"><path style="stroke:none" d="M 9.765625 -13.359375 L 9.765625 -10.9375 C 9.523438 -11.019531 9.15625 -11.0625 8.65625 -11.0625 C 7.320312 -11.0625 6.375 -10.726562 5.8125 -10.0625 C 5.25 -9.40625 4.96875 -8.4375 4.96875 -7.15625 L 4.96875 0 L 2.453125 0 L 2.453125 -10.75 C 2.398438 -11.925781 2.359375 -12.757812 2.328125 -13.25 L 4.828125 -13.25 C 4.867188 -12.195312 4.890625 -11.34375 4.890625 -10.6875 C 5.117188 -11.59375 5.601562 -12.269531 6.34375 -12.71875 C 7.09375 -13.164062 8 -13.390625 9.0625 -13.390625 C 9.34375 -13.390625 9.578125 -13.378906 9.765625 -13.359375 Z M 9.765625 -13.359375 "/></g></g><g style="fill:#ffffff;fill-opacity:1;"><g transform="translate(259.455119, 94.024935)"><path style="stroke:none" d="M 13.65625 -13.25 L 13.65625 -2.421875 C 13.65625 -1.984375 13.679688 -1.175781 13.734375 0 L 11.140625 0 C 11.117188 -0.945312 11.101562 -1.703125 11.09375 -2.265625 C 10.632812 -1.367188 10.050781 -0.742188 9.34375 -0.390625 C 8.644531 -0.046875 7.816406 0.125 6.859375 0.125 C 5.296875 0.125 4.101562 -0.269531 3.28125 -1.0625 C 2.46875 -1.863281 2.0625 -2.976562 2.0625 -4.40625 L 2.0625 -13.25 L 4.59375 -13.25 L 4.59375 -4.640625 C 4.59375 -3.640625 4.828125 -2.914062 5.296875 -2.46875 C 5.765625 -2.019531 6.472656 -1.796875 7.421875 -1.796875 C 8.492188 -1.796875 9.375 -2.101562 10.0625 -2.71875 C 10.75 -3.332031 11.09375 -4.1875 11.09375 -5.28125 L 11.09375 -13.25 Z M 13.65625 -13.25 "/></g></g><g style="fill:#ffffff;fill-opacity:1;"><g transform="translate(275.581562, 94.024935)"><path style="stroke:none" d="M 11.703125 -9.578125 L 9.15625 -9.578125 L 9.15625 -9.75 C 9.15625 -11.082031 8.304688 -11.75 6.609375 -11.75 C 5.753906 -11.75 5.085938 -11.585938 4.609375 -11.265625 C 4.140625 -10.941406 3.90625 -10.46875 3.90625 -9.84375 C 3.90625 -9.039062 4.441406 -8.503906 5.515625 -8.234375 L 8.578125 -7.46875 C 9.742188 -7.1875 10.613281 -6.757812 11.1875 -6.1875 C 11.757812 -5.613281 12.046875 -4.84375 12.046875 -3.875 C 12.046875 -2.570312 11.550781 -1.535156 10.5625 -0.765625 C 9.570312 -0.00390625 8.179688 0.375 6.390625 0.375 C 4.703125 0.375 3.40625 0 2.5 -0.75 C 1.59375 -1.5 1.140625 -2.5625 1.140625 -3.9375 L 3.75 -3.9375 C 3.75 -3.175781 4 -2.582031 4.5 -2.15625 C 5 -1.738281 5.726562 -1.53125 6.6875 -1.53125 C 7.582031 -1.53125 8.257812 -1.722656 8.71875 -2.109375 C 9.175781 -2.492188 9.40625 -3 9.40625 -3.625 C 9.40625 -4.414062 8.988281 -4.925781 8.15625 -5.15625 C 7.332031 -5.394531 6.363281 -5.640625 5.25 -5.890625 C 4.125 -6.140625 3.203125 -6.535156 2.484375 -7.078125 C 1.765625 -7.617188 1.40625 -8.445312 1.40625 -9.5625 C 1.40625 -10.757812 1.882812 -11.726562 2.84375 -12.46875 C 3.800781 -13.207031 5.046875 -13.578125 6.578125 -13.578125 C 8.015625 -13.578125 9.226562 -13.28125 10.21875 -12.6875 C 11.207031 -12.09375 11.703125 -11.179688 11.703125 -9.953125 Z M 11.703125 -9.578125 "/></g></g></g></svg>